<svg viewBox="0 0 640 540" xmlns="http://www.w3.org/2000/svg" font-family="'Inter','Helvetica Neue',Arial,sans-serif">
  <defs><clipPath id="ca"><rect x="0" y="0" width="640" height="540" rx="8"/></clipPath></defs>
  <rect x="0" y="0" width="640" height="540" rx="8" fill="#f7fafd" stroke="#b0c8dc" stroke-width="1.2"/>

  <!-- Breadcrumb -->
  <text x="18" y="22" font-size="10.5" fill="#2d5a8a">Cloud Accounts</text>
  <text x="108" y="22" font-size="10.5" fill="#7a9ec4">&#8250;</text>
  <text x="118" y="22" font-size="10.5" fill="#7a9ec4">Account Details</text>
  <line x1="0" y1="30" x2="640" y2="30" stroke="#dce8f5" stroke-width="1"/>

  <!-- Page header -->
  <!-- AWS logo placeholder -->
  <rect x="18" y="40" width="32" height="26" rx="4" fill="#dce8f5" stroke="#b0c8dc" stroke-width="1"/>
  <text x="34" y="57" font-size="9" fill="#2d5a8a" text-anchor="middle" font-weight="700">AWS</text>
  <text x="62" y="58" font-size="17" font-weight="600" fill="#1e3252">My Aws Account</text>
  <!-- Enabled toggle -->
  <rect x="524" y="42" width="48" height="22" rx="11" fill="#2d5a8a"/>
  <circle cx="560" cy="53" r="9" fill="#dce8f5"/>
  <text x="578" y="57" font-size="10.5" fill="#1e3252" font-weight="500">Enabled</text>
  <!-- Delete button -->
  <rect x="616" y="42" width="22" height="22" rx="4" fill="#dce8f5" stroke="#b0c8dc" stroke-width="1"/>
  <text x="627" y="57" font-size="11" fill="#7a9ec4" text-anchor="middle">&#128465;</text>

  <line x1="0" y1="76" x2="640" y2="76" stroke="#dce8f5" stroke-width="1"/>

  <!-- ── LEFT PANEL (fields) ────────────────────────────── -->
  <!-- Col 1 labels + values -->
  <text x="18" y="100" font-size="9.5" fill="#7a9ec4">Account ID</text>
  <text x="18" y="114" font-size="10.5" fill="#1a2d3e">3282893289</text>

  <text x="18" y="136" font-size="9.5" fill="#7a9ec4">Type</text>
  <text x="18" y="150" font-size="10.5" fill="#1a2d3e">&#9679; Account</text>

  <text x="18" y="172" font-size="9.5" fill="#7a9ec4">Deployment Type</text>
  <text x="18" y="186" font-size="10.5" fill="#1a2d3e" font-weight="600">Global</text>

  <text x="18" y="208" font-size="9.5" fill="#7a9ec4">Protection Mode</text>
  <text x="18" y="222" font-size="10.5" fill="#1a2d3e" font-weight="600">Monitor &amp; Protect</text>

  <text x="18" y="244" font-size="9.5" fill="#7a9ec4">Account Groups</text>
  <text x="18" y="258" font-size="10.5" fill="#2d5a8a">2 Account Groups</text>

  <text x="18" y="280" font-size="9.5" fill="#7a9ec4">Last Modified</text>
  <text x="18" y="294" font-size="10.5" fill="#1a2d3e">Mar 3, 2019 02:23</text>

  <text x="18" y="316" font-size="9.5" fill="#7a9ec4">Last Modified By</text>
  <text x="18" y="330" font-size="10.5" fill="#1a2d3e">Mark Bulter</text>

  <!-- Vertical divider between col 1 and col 2 -->
  <line x1="230" y1="88" x2="230" y2="350" stroke="#dce8f5" stroke-width="1"/>

  <!-- Col 2 -->
  <text x="248" y="100" font-size="9.5" fill="#7a9ec4">Role Arn</text>
  <text x="248" y="114" font-size="10" fill="#2d5a8a">&#128203; aws:32423::role/PrismaRole</text>

  <text x="248" y="136" font-size="9.5" fill="#7a9ec4">External ID</text>
  <text x="248" y="150" font-size="10" fill="#2d5a8a">&#128203; 7854jk453-34298-42398</text>

  <text x="248" y="172" font-size="9.5" fill="#7a9ec4">EventBridge Rule Name</text>
  <text x="248" y="186" font-size="10" fill="#2d5a8a">&#128203; defaultprismaEbRule</text>

  <text x="248" y="208" font-size="9.5" fill="#7a9ec4">CFT Template</text>
  <text x="248" y="222" font-size="10" fill="#2d5a8a">&#8659; CFT1</text>
  <text x="296" y="222" font-size="10" fill="#2d5a8a">&#8659; CFT2</text>

  <text x="248" y="244" font-size="9.5" fill="#7a9ec4">Audit Logs</text>
  <rect x="248" y="250" width="130" height="24" rx="4" fill="#ffffff" stroke="#b0c8dc" stroke-width="1"/>
  <text x="258" y="266" font-size="10" fill="#1a2d3e">Write Events</text>
  <text x="366" y="266" font-size="10" fill="#7a9ec4">&#9662;</text>

  <text x="248" y="292" font-size="9.5" fill="#7a9ec4">Flow Logs</text>
  <rect x="248" y="298" width="80" height="24" rx="4" fill="#ffffff" stroke="#b0c8dc" stroke-width="1"/>
  <text x="258" y="314" font-size="10" fill="#1a2d3e">S3</text>
  <text x="316" y="314" font-size="10" fill="#7a9ec4">&#9662;</text>
  <rect x="338" y="298" width="66" height="24" rx="4" fill="#dce8f5" stroke="#2d5a8a" stroke-width="1"/>
  <text x="371" y="314" font-size="10" fill="#2d5a8a" text-anchor="middle" font-weight="600">Configure</text>

  <!-- Horizontal divider before security modules -->
  <line x1="18" y1="350" x2="440" y2="350" stroke="#dce8f5" stroke-width="1"/>

  <!-- Security Modules -->
  <text x="18" y="372" font-size="12" font-weight="600" fill="#1e3252">Security Modules</text>
  <rect x="18" y="382" width="400" height="60" rx="6" fill="#ffffff" stroke="#b0c8dc" stroke-width="1"/>
  <!-- DS icon placeholder -->
  <rect x="30" y="396" width="22" height="22" rx="3" fill="#dce8f5" stroke="#b0c8dc" stroke-width="0.8"/>
  <text x="41" y="411" font-size="8" fill="#2d5a8a" text-anchor="middle">DS</text>
  <text x="62" y="411" font-size="11" fill="#1a2d3e" font-weight="500">Data Security</text>
  <!-- Configure button -->
  <rect x="342" y="393" width="64" height="26" rx="4" fill="#2d5a8a"/>
  <text x="374" y="410" font-size="10.5" fill="#ffffff" text-anchor="middle" font-weight="600">Configure</text>

  <!-- Empty state inside module card -->
  <rect x="18" y="444" width="400" height="34" rx="0 0 6 6" fill="#f0f5fb" stroke="#b0c8dc" stroke-width="1"/>
  <text x="218" y="465" font-size="10" fill="#7a9ec4" text-anchor="middle">Data Security is not configured for this account.</text>

  <!-- ── RIGHT PANEL (Status) ─────────────────────── -->
  <line x1="460" y1="76" x2="460" y2="540" stroke="#dce8f5" stroke-width="1"/>
  <text x="476" y="100" font-size="12" font-weight="600" fill="#1e3252">Status</text>
  <line x1="460" y1="108" x2="640" y2="108" stroke="#dce8f5" stroke-width="1"/>

  <!-- CONFIG — Operational -->
  <text x="476" y="128" font-size="9" fill="#7a9ec4" font-weight="700" letter-spacing="0.6">CONFIG</text>
  <circle cx="476" cy="144" r="6" fill="#2d5a8a"/>
  <text x="484" y="148" font-size="10" fill="#7a9ec4">&#10003;</text>
  <text x="492" y="148" font-size="11" fill="#1a2d3e">Operational</text>
  <line x1="460" y1="160" x2="640" y2="160" stroke="#dce8f5" stroke-width="0.8"/>

  <!-- AUDIT LOGS — Not Configured -->
  <text x="476" y="180" font-size="9" fill="#7a9ec4" font-weight="700" letter-spacing="0.6">AUDIT LOGS</text>
  <circle cx="476" cy="196" r="6" fill="#dce8f5" stroke="#b0c8dc" stroke-width="1.5"/>
  <text x="487" y="200" font-size="11" fill="#7a9ec4">&#215;</text>
  <text x="495" y="200" font-size="11" fill="#7a9ec4">Not Configured</text>
  <line x1="460" y1="212" x2="640" y2="212" stroke="#dce8f5" stroke-width="0.8"/>

  <!-- FLOW LOGS — Review Permissions -->
  <text x="476" y="232" font-size="9" fill="#7a9ec4" font-weight="700" letter-spacing="0.6">FLOW LOGS</text>
  <circle cx="476" cy="248" r="6" fill="#b0c8dc" stroke="#2d5a8a" stroke-width="1"/>
  <text x="484" y="252" font-size="10" fill="#7a9ec4">!</text>
  <text x="492" y="252" font-size="11" fill="#2d5a8a">Review Permissions</text>
  <line x1="460" y1="264" x2="640" y2="264" stroke="#dce8f5" stroke-width="0.8"/>

  <!-- DATA SECURITY — Not Configured -->
  <text x="476" y="284" font-size="9" fill="#7a9ec4" font-weight="700" letter-spacing="0.6">DATA SECURITY</text>
  <circle cx="476" cy="300" r="6" fill="#dce8f5" stroke="#b0c8dc" stroke-width="1.5"/>
  <text x="487" y="304" font-size="11" fill="#7a9ec4">&#215;</text>
  <text x="495" y="304" font-size="11" fill="#7a9ec4">Not Configured</text>

  <!-- Annotation callout -->
  <rect x="462" y="330" width="164" height="52" rx="6" fill="#1e3252"/>
  <text x="544" y="350" font-size="9.5" fill="#dce8f5" text-anchor="middle">2 of 4 items</text>
  <text x="544" y="364" font-size="9.5" fill="#dce8f5" text-anchor="middle" font-weight="600">Not Configured</text>
  <text x="544" y="376" font-size="9" fill="#7a9ec4" text-anchor="middle">No guided activation path</text>

  <!-- Footer note -->
  <line x1="0" y1="508" x2="640" y2="508" stroke="#dce8f5" stroke-width="0.8"/>
  <text x="18" y="524" font-size="9" fill="#7a9ec4" font-style="italic">Before redesign &#183; Account connected but security modules unreachable without manual navigation</text>
</svg>